<svg width="25" height="23" viewBox="0 0 25 23" fill="none" xmlns="http://www.w3.org/2000/svg">
<path d="M11.2379 0.964936C11.8283 0.0457913 13.1717 0.0457928 13.7621 0.964937L16.7865 5.67365C16.9896 5.9899 17.3041 6.21837 17.6676 6.31383L23.0805 7.73515C24.1371 8.0126 24.5522 9.29028 23.8605 10.1358L20.3168 14.4673C20.0788 14.7582 19.9587 15.1278 19.9803 15.5031L20.3012 21.0902C20.3638 22.1808 19.277 22.9705 18.2591 22.5739L13.0446 20.5422C12.6943 20.4057 12.3057 20.4057 11.9554 20.5422L6.74091 22.5739C5.72303 22.9705 4.63617 22.1808 4.69881 21.0902L5.01972 15.5031C5.04127 15.1278 4.92116 14.7582 4.68316 14.4673L1.1395 10.1358C0.447772 9.29028 0.862917 8.0126 1.91951 7.73515L7.33237 6.31383C7.69591 6.21837 8.01036 5.9899 8.21349 5.67365L11.2379 0.964936Z" fill="currentColor"/>
</svg>
